<svg width="15" height="10" viewBox="0 0 65 60" xmlns="http://www.w3.org/2000/svg">
    <path d="M11.6001 30.59C13.1751 29.82 14.3601 29.05 15.5451 27.895L17.9101 24.435C18.3051 22.895 18.7001 21.355 18.7001 19.815H56.1601C58.5251 19.815 60.4951 19.045 62.0751 17.89C63.2551 16.35 64.0451 14.43 64.0451 11.735V2.5H58.9201V11.35C58.9201 13.275 57.7351 14.43 55.7651 14.43H18.7001V12.5C18.7001 10.575 18.3001 9.42 17.9101 7.88C17.9101 6.73 17.1201 5.575 16.3301 4.805C15.6358 4.15995 14.8358 3.63904 13.9651 3.265C12.7851 2.885 11.6001 2.5 10.8151 2.5C9.2351 2.5 8.0501 2.885 6.8651 3.27C6.0851 4.04 4.9001 4.42 4.5001 5.58C3.7151 6.35 2.9251 7.115 2.9251 8.27C2.5301 9.425 2.1351 10.58 2.1351 11.735C2.1351 12.885 2.1351 14.045 2.5351 15.2C2.9251 16.35 3.3201 17.12 3.7151 17.89C4.5001 18.275 5.2901 19.045 6.4751 19.43C7.6551 19.815 8.8401 19.815 10.8101 19.815H13.9651C13.9651 20.585 13.5701 21.355 13.5701 22.125C13.1751 22.895 12.3901 23.665 11.9951 24.435C11.6001 24.815 10.8101 25.2 9.6301 25.585C8.64647 26.0667 7.57006 26.3294 6.4751 26.355H1.3501V31.75H6.4751C8.4451 31.365 10.0251 30.975 11.6001 30.59ZM10.8101 14.43C9.2351 14.43 8.4451 14.43 7.6601 13.66C7.2601 13.275 6.8701 12.505 6.8701 11.35C6.8701 10.2 7.2651 9.04 7.6551 8.655C8.4451 8.27 9.2351 7.885 10.4151 7.885C11.6001 7.885 12.3901 8.27 13.1751 9.04C13.9651 9.81 13.9651 10.965 13.9651 12.505V14.815H10.8151V14.43H10.8101Z" fill="#252525"/>
    <path d="M52.2101 2.5H37.2251V7.115H52.2101V2.5ZM63.6501 42.52C63.2501 41.365 62.8601 40.595 62.0701 39.825C61.2851 39.055 60.4951 38.285 59.3101 37.9C58.328 37.419 57.2534 37.1563 56.1601 37.13C54.9751 37.13 53.7901 37.515 52.6101 37.9C51.4251 38.285 50.6351 39.055 49.8501 39.825C49.0601 40.595 48.6651 41.365 48.2701 42.52C47.8751 43.67 47.8751 44.83 47.8751 45.98V47.135C47.8751 48.29 47.4801 48.675 47.0851 49.445C46.3001 49.83 45.5101 50.215 44.3251 50.215H42.7501C42.0226 50.2015 41.3239 49.9284 40.7801 49.445C40.3801 48.675 39.9901 47.905 39.9901 47.135V28.665H34.8651V47.905C34.8651 49.445 34.8651 50.6 35.2601 51.37C35.6501 52.14 36.0451 52.91 36.8351 53.68C37.6251 54.06 38.0201 54.83 39.2001 54.83C39.9901 55.215 40.7801 55.215 41.9601 55.215H44.7201C45.5101 55.215 46.6951 54.83 47.4801 54.45C48.2701 54.06 49.4551 53.295 49.8501 52.14C50.6351 53.29 51.4251 54.06 52.6101 54.445C53.7901 54.83 54.9751 55.215 56.5501 55.215C58.9151 55.215 61.2851 54.45 62.4651 52.91C64.0451 51.37 64.8301 49.06 64.8301 46.365C64.4913 45.0656 64.0976 43.7861 63.6501 42.52ZM56.1501 49.83C54.9701 49.83 54.1801 49.445 53.7851 49.06C52.6051 48.29 52.6051 47.52 52.6051 46.365C52.6051 45.215 52.9951 44.445 53.3901 43.675C53.7901 42.905 54.9701 42.52 56.1501 42.52C57.3351 42.52 58.5201 42.905 58.9101 43.67C59.3101 44.445 59.7001 45.215 59.7001 46.37C59.3051 48.675 58.1251 49.83 56.1501 49.83ZM24.6151 42.52C24.6151 43.67 24.6151 44.44 24.2151 45.595L23.0351 47.905C22.2451 48.675 21.4601 49.055 20.6701 49.445C19.5611 49.9693 18.3467 50.2327 17.1201 50.215H13.5701C12.3901 50.215 11.2051 50.215 10.0201 49.83C9.2351 49.06 8.4451 48.675 8.0501 47.905C7.6551 47.135 6.8701 46.365 6.8701 45.595C6.4701 44.825 6.4701 43.675 6.4701 42.52V38.285H1.3501V42.905C1.3501 46.755 2.5301 49.83 4.5001 52.14C6.4751 54.445 9.2351 55.6 13.1751 55.6H17.1251C19.0901 55.6 20.6701 55.215 22.2451 54.45C23.8251 53.675 25.0051 52.905 26.1901 51.75C27.3751 50.6 28.1601 49.06 28.5551 47.52C28.9551 45.98 29.3451 44.44 29.3451 42.52V28.67L24.2201 28.28L24.6151 42.52Z" fill="#252525"/>
    <path d="M18.7002 37.1299H12.7852V42.5149H18.7002V37.1299Z" fill="#252525"/>
    </svg>
    